<mxfile host="app.diagrams.net" modified="2024-07-07T11:13:28.019Z" agent="Mozilla/5.0 (Windows NT 10.0; Win64; x64) AppleWebKit/537.36 (KHTML, like Gecko) Chrome/126.0.0.0 Safari/537.36" version="24.6.4" etag="tXv38rDXsn2gtWyBl3Vj" type="device">
  <diagram id="amp1seabJaFsPkXWmOd9" name="Page-1">
    <mxGraphModel dx="794" dy="446" grid="0" gridSize="10" guides="1" tooltips="1" connect="1" arrows="1" fold="1" page="1" pageScale="1" pageWidth="850" pageHeight="1100" math="0" shadow="0">
      <root>
        <mxCell id="0" />
        <mxCell id="1" parent="0" />
        <mxCell id="qqKNhpcuRSpqBP2wPu2f-1" value="Model" style="rounded=0;whiteSpace=wrap;html=1;fillColor=none;" vertex="1" parent="1">
          <mxGeometry x="90" y="130" width="90" height="40" as="geometry" />
        </mxCell>
        <mxCell id="qqKNhpcuRSpqBP2wPu2f-2" value="&lt;div style=&quot;font-size: 22px;&quot;&gt;&lt;font style=&quot;font-size: 22px;&quot;&gt;Sistem Klasifikasi Sinyal Seismik&lt;/font&gt;&lt;/div&gt;&lt;div style=&quot;font-size: 22px;&quot;&gt;&lt;br&gt;&lt;/div&gt;" style="text;html=1;align=center;verticalAlign=middle;whiteSpace=wrap;rounded=0;fontStyle=1" vertex="1" parent="1">
          <mxGeometry x="210" y="90" width="370" height="30" as="geometry" />
        </mxCell>
        <mxCell id="qqKNhpcuRSpqBP2wPu2f-3" value="" style="rounded=0;whiteSpace=wrap;html=1;fillColor=none;" vertex="1" parent="1">
          <mxGeometry x="230" y="170" width="320" height="40" as="geometry" />
        </mxCell>
        <mxCell id="qqKNhpcuRSpqBP2wPu2f-4" value="Browse Files" style="rounded=0;whiteSpace=wrap;html=1;fillColor=none;" vertex="1" parent="1">
          <mxGeometry x="420" y="177.5" width="120" height="25" as="geometry" />
        </mxCell>
        <mxCell id="qqKNhpcuRSpqBP2wPu2f-5" value="Visualisasi Sinyal Seismik" style="rounded=0;whiteSpace=wrap;html=1;fillColor=none;" vertex="1" parent="1">
          <mxGeometry x="230" y="240" width="320" height="70" as="geometry" />
        </mxCell>
        <mxCell id="qqKNhpcuRSpqBP2wPu2f-6" value="Extracted Features" style="rounded=0;whiteSpace=wrap;html=1;fillColor=none;" vertex="1" parent="1">
          <mxGeometry x="230" y="340" width="320" height="70" as="geometry" />
        </mxCell>
        <mxCell id="qqKNhpcuRSpqBP2wPu2f-7" value="Merged Dataframe" style="rounded=0;whiteSpace=wrap;html=1;fillColor=none;" vertex="1" parent="1">
          <mxGeometry x="230" y="440" width="320" height="70" as="geometry" />
        </mxCell>
        <mxCell id="qqKNhpcuRSpqBP2wPu2f-8" value="&lt;div&gt;Merged DataFrame After Filling NaN with 0&lt;/div&gt;" style="rounded=0;whiteSpace=wrap;html=1;fillColor=none;" vertex="1" parent="1">
          <mxGeometry x="230" y="540" width="320" height="70" as="geometry" />
        </mxCell>
        <mxCell id="qqKNhpcuRSpqBP2wPu2f-9" value="&lt;div&gt;Prediction Results&lt;/div&gt;" style="rounded=0;whiteSpace=wrap;html=1;fillColor=none;" vertex="1" parent="1">
          <mxGeometry x="230" y="640" width="320" height="70" as="geometry" />
        </mxCell>
        <mxCell id="qqKNhpcuRSpqBP2wPu2f-10" value="&lt;div&gt;Prediction Percentage&lt;/div&gt;" style="rounded=0;whiteSpace=wrap;html=1;fillColor=none;" vertex="1" parent="1">
          <mxGeometry x="230" y="740" width="90" height="60" as="geometry" />
        </mxCell>
        <mxCell id="qqKNhpcuRSpqBP2wPu2f-11" value="&lt;div&gt;Visualisasi Sinyal Seismik Pada Trace Pertama&lt;/div&gt;&lt;div&gt;&lt;br&gt;&lt;/div&gt;" style="text;html=1;align=center;verticalAlign=middle;whiteSpace=wrap;rounded=0;" vertex="1" parent="1">
          <mxGeometry x="210" y="220" width="300" height="30" as="geometry" />
        </mxCell>
        <mxCell id="qqKNhpcuRSpqBP2wPu2f-12" value="&lt;div&gt;Extracted Features&lt;/div&gt;" style="text;html=1;align=left;verticalAlign=middle;whiteSpace=wrap;rounded=0;" vertex="1" parent="1">
          <mxGeometry x="230" y="310" width="300" height="30" as="geometry" />
        </mxCell>
        <mxCell id="qqKNhpcuRSpqBP2wPu2f-13" value="&lt;div&gt;Merged Dataframe&lt;/div&gt;" style="text;html=1;align=left;verticalAlign=middle;whiteSpace=wrap;rounded=0;" vertex="1" parent="1">
          <mxGeometry x="230" y="410" width="300" height="30" as="geometry" />
        </mxCell>
        <mxCell id="qqKNhpcuRSpqBP2wPu2f-14" value="&lt;span style=&quot;text-align: center;&quot;&gt;Merged DataFrame After Filling NaN with 0&lt;/span&gt;" style="text;html=1;align=left;verticalAlign=middle;whiteSpace=wrap;rounded=0;" vertex="1" parent="1">
          <mxGeometry x="230" y="510" width="300" height="30" as="geometry" />
        </mxCell>
        <mxCell id="qqKNhpcuRSpqBP2wPu2f-15" value="&lt;span style=&quot;text-align: center;&quot;&gt;Prediction Results&lt;/span&gt;" style="text;html=1;align=left;verticalAlign=middle;whiteSpace=wrap;rounded=0;" vertex="1" parent="1">
          <mxGeometry x="230" y="610" width="300" height="30" as="geometry" />
        </mxCell>
        <mxCell id="qqKNhpcuRSpqBP2wPu2f-16" value="&lt;span style=&quot;text-align: center;&quot;&gt;Prediction Percentages&lt;/span&gt;" style="text;html=1;align=left;verticalAlign=middle;whiteSpace=wrap;rounded=0;" vertex="1" parent="1">
          <mxGeometry x="230" y="710" width="300" height="30" as="geometry" />
        </mxCell>
        <mxCell id="qqKNhpcuRSpqBP2wPu2f-17" value="" style="triangle;whiteSpace=wrap;html=1;rotation=90;" vertex="1" parent="1">
          <mxGeometry x="160" y="145" width="10" height="10" as="geometry" />
        </mxCell>
      </root>
    </mxGraphModel>
  </diagram>
</mxfile>
